<svg height="512" viewBox="0 0 58 58" width="512" xmlns="http://www.w3.org/2000/svg"><g id="040---Lung-Disease-X-Ray" fill="none"><rect id="Rectangle-path" fill="#35495e" height="49" rx="3" width="46"/><path id="Shape" d="m46 15v28c-2.1377993-2.4641921-3.7051092-5.3700323-4.59-8.51-.6812124 2.5160954-1.5951549 4.9633187-2.73 7.31-.826 1.688-.68 2.741-.68 7.2h-30c0-4.03.186-5.431-.68-7.2-1.13484509-2.3466813-2.04878755-4.7939046-2.73-7.31-.88596333 3.1395333-2.4531527 6.0451502-4.59 8.51v-28c1.85867588-1.8426888 4.3831211-2.8560732 7-2.81 4 0 10-3.38 10-7.66v-2.13h12v2.13c0 4.28 6 7.66 10 7.66 2.6168789-.0460732 5.1413241.9673112 7 2.81z" fill="#fdd7ad"/><path id="Shape" d="m21 27.52c.0080676 3.9495723-2.4832999 7.4719888-6.21 8.78l-1.5.52c-.9906205.3412713-2.0851661.181797-2.937224-.4279508-.85205799-.6097477-1.35616491-1.5942975-1.352776-2.6420492v-8.38c-.01167941-4.9323018 3.0126181-9.3634342 7.61-11.15.97461-.3762654 2.0710385-.2577507 2.9427344.3180848.8716959.5758356 1.4109302 1.5378271 1.4472656 2.5819152z" fill="#ff5364"/><path id="Shape" d="m25.005 17.12c.0355623-1.0433619.5738233-2.0050146 1.4445897-2.580892.8707663-.5758774 1.9663772-.6947786 2.9404103-.319108 4.5973819 1.7865658 7.6216794 6.2176982 7.61 11.15v8.38c.0033889 1.0477517-.500718 2.0323015-1.352776 2.6420492-.8520579.6097478-1.9466035.7692221-2.937224.4279508l-1.5-.52c-3.725109-1.3091992-6.2144158-4.8315382-6.205-8.78z" fill="#ff5364"/><g fill="#df4d60"><circle id="Oval" cx="13" cy="27" r="1"/><circle id="Oval" cx="13" cy="31" r="1"/><circle id="Oval" cx="17" cy="29" r="1"/><circle id="Oval" cx="15" cy="23" r="1"/><circle id="Oval" cx="33" cy="27" r="1"/><circle id="Oval" cx="33" cy="31" r="1"/><circle id="Oval" cx="29" cy="29" r="1"/><circle id="Oval" cx="31" cy="23" r="1"/></g><path id="Shape" d="m29 2.4v1.5c-2.18 2.36-2.31 4.6-4.72 4.6h-2.56c-2.41 0-2.54-2.24-4.72-4.6v-1.5z" fill="#f9c795"/><path id="Shape" d="m19.5 19.625c.9889467-.486787 1.582695-1.5258464 1.5-2.625v-10.08h4v10.08c-.082695 1.0991536.5110533 2.138213 1.5 2.625.8168993.3796017 1.2565148 1.2792702 1.054 2.157l-.045.18c-.1391191.5729138-.5355344 1.0491999-1.073677 1.2900046-.5381426.2408046-1.1574317.2190194-1.677323-.0590046-.4925789-.2625291-.9382763-.6048274-1.319-1.013-.1114008-.1255013-.2711885-.1973232-.439-.1973232s-.3275992.0718219-.439.1973232c-.3807237.4081726-.8264211.7504709-1.319 1.013-.5198913.278024-1.1391804.2998092-1.677323.0590046-.5381426-.2408047-.9345579-.7170908-1.073677-1.2900046-.2983277-.9218529.133469-1.9219608 1.009-2.337z" fill="#802d40"/><path id="Shape" d="m15.16 0c.3567072.7524633.8520161 1.43096871 1.46 2 2.547 2.5 2.55 5 5.1 5h2.56c2.55 0 2.553-2.5 5.1-5 .6079839-.56903129 1.1032928-1.2475367 1.46-2z" fill="#fdd7ad"/><path id="Shape" d="m46 16.55v26.45c-.7337373-.8483275-1.4023081-1.7508981-2-2.7v-8.73l-3.9-6.75c-2.662-4.809 2.054-10.193 5.9-8.27z" fill="#f9c795"/><path id="Shape" d="m56 58h-11.49c-.8953951.0001592-1.6808684-.5971278-1.92-1.46l-.48-1.74c-.0602252-.449588-.4191332-.8002452-.87-.85-3.615818-.3552358-6.9410502-2.1366102-9.24-4.95h11c1.6568542 0 3-1.3431458 3-3 0-15.6.12-14.759-.28-15.47l-3.89-6.71c-1.0457523-1.8855498-.408852-4.2606569 1.44-5.37.9348023-.5652736 2.1502354-.2758848 2.73.65l7.67 12.48c.8691279 1.4173395 1.3294214 3.0474014 1.33 4.71v3.71l2.97 15.67c.0995135.5800284-.0624097 1.1743839-.4423757 1.6237853-.3799661.4494015-.9391236.7078978-1.5276243.7062147z" fill="#fdd7ad"/><path id="Shape" d="m55.99 45.2c-1 2.213-2.461 3.8-4.99 3.8 4.39-3.32 4-9 4-9z" fill="#f9c795"/><path id="Shape" d="m46 46v1.5c0 1.6568542-1.3431458 3-3 3h-9.59c-.5098173-.46102-.9813661-.9626677-1.41-1.5h11c1.6568542 0 3-1.3431458 3-3z" fill="#f9c795"/></g></svg>